# xmcd
#
# Track frame offsets:
#	150
#	18220
#	38767
#	67645
#	81865
#	101365
#	113597
#	129237
#	150410
#
# Disc length: 2131 seconds
#
# Revision: 1
# Processed by: cddbd v1.5.1PL0 Copyright (c) Steve Scherf et al.
# Submitted via: CDex 1.50Beta5
#
DISCID=54085109
DTITLE=東京クラリネットアンサンブル - クラリネット・アンサンブル
DYEAR=1900
DGENRE=Music
TTITLE0=「アイネ・クリネ・ナガトムジーク」から第１楽章／モーツァルト
TTITLE1=カノン／バッヘルベル
TTITLE2=時の踊り／ボンキエルリ
TTITLE3=ユーモレスク／ドヴォルザーク
TTITLE4=「ロザムンデ」から「間奏曲」／シューベルト
TTITLE5=トロイメライ／シューマン
TTITLE6=酋長の行列／イッポリトフ・イヴァノフ
TTITLE7=G線上のアリア／J．S．バッハ
TTITLE8=クラリネット・ポルカ／ポーランド民謡
EXTD=
EXTT0=
EXTT1=
EXTT2=
EXTT3=
EXTT4=
EXTT5=
EXTT6=
EXTT7=
EXTT8=
PLAYORDER=
